<?xml version="1.0" encoding="UTF-8"?>
<svg xmlns="http://www.w3.org/2000/svg" version="1.1" width="100" height="100" viewBox="0 0 100 100"><rect x="0" y="0" width="100" height="100" fill="#ffffff"/><g transform="scale(3.448)"><g transform="translate(0,0)"><path fill-rule="evenodd" d="M9 0L9 1L8 1L8 2L9 2L9 3L8 3L8 4L10 4L10 7L11 7L11 4L12 4L12 5L13 5L13 4L14 4L14 7L15 7L15 6L16 6L16 7L17 7L17 6L18 6L18 8L15 8L15 9L16 9L16 10L14 10L14 8L13 8L13 6L12 6L12 9L13 9L13 10L11 10L11 11L10 11L10 9L11 9L11 8L6 8L6 9L7 9L7 10L5 10L5 11L4 11L4 9L5 9L5 8L0 8L0 10L1 10L1 9L3 9L3 11L2 11L2 15L1 15L1 13L0 13L0 16L2 16L2 17L0 17L0 21L1 21L1 18L2 18L2 17L4 17L4 18L3 18L3 19L2 19L2 21L4 21L4 20L5 20L5 19L4 19L4 18L5 18L5 17L10 17L10 18L11 18L11 16L12 16L12 17L14 17L14 20L13 20L13 18L12 18L12 19L9 19L9 20L11 20L11 21L8 21L8 23L9 23L9 24L8 24L8 29L10 29L10 28L11 28L11 29L13 29L13 28L11 28L11 26L12 26L12 27L13 27L13 26L15 26L15 27L14 27L14 29L15 29L15 28L17 28L17 29L19 29L19 28L22 28L22 27L23 27L23 26L24 26L24 27L26 27L26 26L24 26L24 25L27 25L27 28L24 28L24 29L27 29L27 28L28 28L28 26L29 26L29 23L28 23L28 25L27 25L27 24L25 24L25 23L27 23L27 22L29 22L29 20L28 20L28 19L27 19L27 16L28 16L28 15L27 15L27 12L28 12L28 11L27 11L27 12L25 12L25 9L26 9L26 8L25 8L25 9L24 9L24 8L23 8L23 9L22 9L22 8L20 8L20 9L19 9L19 5L20 5L20 3L21 3L21 0L19 0L19 1L18 1L18 2L19 2L19 5L17 5L17 4L18 4L18 3L17 3L17 0L16 0L16 1L15 1L15 2L14 2L14 1L11 1L11 2L10 2L10 0ZM19 1L19 2L20 2L20 1ZM12 2L12 4L13 4L13 3L14 3L14 2ZM10 3L10 4L11 4L11 3ZM16 3L16 4L15 4L15 5L16 5L16 6L17 6L17 5L16 5L16 4L17 4L17 3ZM8 5L8 7L9 7L9 5ZM20 6L20 7L21 7L21 6ZM27 8L27 9L28 9L28 10L29 10L29 9L28 9L28 8ZM8 9L8 10L9 10L9 9ZM20 9L20 10L17 10L17 11L16 11L16 12L14 12L14 11L12 11L12 12L14 12L14 13L13 13L13 14L12 14L12 13L11 13L11 12L10 12L10 13L11 13L11 15L13 15L13 16L14 16L14 13L15 13L15 14L16 14L16 15L17 15L17 16L16 16L16 17L15 17L15 18L16 18L16 17L17 17L17 16L18 16L18 17L20 17L20 18L18 18L18 19L17 19L17 20L16 20L16 21L14 21L14 22L13 22L13 20L12 20L12 22L9 22L9 23L12 23L12 22L13 22L13 24L14 24L14 25L15 25L15 26L16 26L16 25L15 25L15 24L18 24L18 25L17 25L17 28L19 28L19 27L20 27L20 23L19 23L19 22L18 22L18 21L19 21L19 20L21 20L21 19L22 19L22 18L21 18L21 17L20 17L20 16L21 16L21 14L22 14L22 17L23 17L23 18L24 18L24 19L25 19L25 21L26 21L26 20L27 20L27 19L25 19L25 18L24 18L24 17L26 17L26 16L27 16L27 15L26 15L26 13L25 13L25 12L24 12L24 9L23 9L23 12L22 12L22 13L20 13L20 12L21 12L21 11L22 11L22 10L21 10L21 9ZM5 11L5 12L3 12L3 16L4 16L4 17L5 17L5 16L8 16L8 15L5 15L5 16L4 16L4 13L5 13L5 12L7 12L7 11ZM8 11L8 12L9 12L9 11ZM17 12L17 13L16 13L16 14L17 14L17 15L19 15L19 14L20 14L20 13L18 13L18 12ZM23 12L23 13L22 13L22 14L23 14L23 13L24 13L24 14L25 14L25 13L24 13L24 12ZM6 13L6 14L8 14L8 13ZM17 13L17 14L18 14L18 13ZM28 13L28 14L29 14L29 13ZM9 14L9 15L10 15L10 14ZM23 15L23 16L24 16L24 15ZM28 17L28 18L29 18L29 17ZM6 18L6 19L7 19L7 20L6 20L6 21L7 21L7 20L8 20L8 19L7 19L7 18ZM3 19L3 20L4 20L4 19ZM17 20L17 21L16 21L16 22L15 22L15 23L14 23L14 24L15 24L15 23L16 23L16 22L17 22L17 21L18 21L18 20ZM21 21L21 24L24 24L24 21ZM22 22L22 23L23 23L23 22ZM18 23L18 24L19 24L19 23ZM9 24L9 25L10 25L10 26L11 26L11 25L10 25L10 24ZM12 25L12 26L13 26L13 25ZM18 25L18 26L19 26L19 25ZM22 25L22 26L21 26L21 27L22 27L22 26L23 26L23 25ZM0 0L0 7L7 7L7 0ZM1 1L1 6L6 6L6 1ZM2 2L2 5L5 5L5 2ZM22 0L22 7L29 7L29 0ZM23 1L23 6L28 6L28 1ZM24 2L24 5L27 5L27 2ZM0 22L0 29L7 29L7 22ZM1 23L1 28L6 28L6 23ZM2 24L2 27L5 27L5 24Z" fill="#000000"/></g></g></svg>
