<?xml version="1.0" encoding="UTF-8"?>
<svg xmlns="http://www.w3.org/2000/svg" version="1.1" width="100" height="100" viewBox="0 0 100 100"><rect x="0" y="0" width="100" height="100" fill="#ffffff"/><g transform="scale(3.448)"><g transform="translate(0,0)"><path fill-rule="evenodd" d="M10 0L10 1L8 1L8 3L9 3L9 4L8 4L8 8L6 8L6 9L7 9L7 10L6 10L6 11L5 11L5 9L4 9L4 8L3 8L3 9L2 9L2 8L0 8L0 9L2 9L2 10L0 10L0 12L1 12L1 13L3 13L3 10L4 10L4 11L5 11L5 12L6 12L6 13L4 13L4 15L2 15L2 14L1 14L1 17L7 17L7 18L5 18L5 19L4 19L4 20L3 20L3 21L4 21L4 20L6 20L6 21L8 21L8 23L9 23L9 25L8 25L8 26L9 26L9 27L8 27L8 29L9 29L9 27L10 27L10 29L11 29L11 28L12 28L12 29L13 29L13 28L15 28L15 29L16 29L16 28L17 28L17 29L22 29L22 26L23 26L23 28L24 28L24 29L25 29L25 28L26 28L26 26L25 26L25 25L26 25L26 24L27 24L27 26L28 26L28 27L27 27L27 29L28 29L28 27L29 27L29 26L28 26L28 24L29 24L29 23L28 23L28 22L29 22L29 21L27 21L27 20L29 20L29 17L28 17L28 15L29 15L29 14L27 14L27 13L29 13L29 12L28 12L28 10L29 10L29 9L28 9L28 8L26 8L26 9L25 9L25 8L22 8L22 9L21 9L21 8L20 8L20 9L21 9L21 10L19 10L19 11L18 11L18 12L16 12L16 11L17 11L17 9L16 9L16 11L15 11L15 13L17 13L17 14L16 14L16 15L15 15L15 16L17 16L17 17L16 17L16 18L17 18L17 20L16 20L16 19L14 19L14 21L13 21L13 20L10 20L10 19L11 19L11 18L10 18L10 17L9 17L9 18L10 18L10 19L9 19L9 20L6 20L6 19L8 19L8 17L7 17L7 16L4 16L4 15L8 15L8 13L9 13L9 16L11 16L11 17L12 17L12 18L13 18L13 16L14 16L14 14L13 14L13 15L12 15L12 13L13 13L13 12L14 12L14 11L13 11L13 9L14 9L14 8L12 8L12 7L13 7L13 6L14 6L14 7L15 7L15 6L16 6L16 8L18 8L18 9L19 9L19 8L18 8L18 7L19 7L19 6L20 6L20 7L21 7L21 4L20 4L20 5L19 5L19 6L18 6L18 5L17 5L17 4L16 4L16 3L15 3L15 2L16 2L16 0L14 0L14 1L13 1L13 2L14 2L14 4L13 4L13 3L12 3L12 7L11 7L11 4L10 4L10 3L9 3L9 2L11 2L11 0ZM19 0L19 1L20 1L20 2L19 2L19 3L18 3L18 1L17 1L17 3L18 3L18 4L19 4L19 3L21 3L21 1L20 1L20 0ZM14 1L14 2L15 2L15 1ZM14 4L14 6L15 6L15 4ZM9 5L9 8L8 8L8 10L7 10L7 11L6 11L6 12L9 12L9 13L10 13L10 14L11 14L11 13L10 13L10 12L9 12L9 11L11 11L11 8L10 8L10 5ZM16 5L16 6L17 6L17 7L18 7L18 6L17 6L17 5ZM9 9L9 10L10 10L10 9ZM24 9L24 10L23 10L23 12L24 12L24 15L22 15L22 14L23 14L23 13L22 13L22 12L18 12L18 14L17 14L17 15L18 15L18 14L19 14L19 15L20 15L20 17L19 17L19 16L18 16L18 19L19 19L19 20L17 20L17 21L18 21L18 22L16 22L16 20L15 20L15 21L14 21L14 22L13 22L13 23L14 23L14 22L15 22L15 24L13 24L13 26L12 26L12 27L17 27L17 24L18 24L18 27L19 27L19 28L20 28L20 24L19 24L19 23L20 23L20 21L19 21L19 20L21 20L21 19L20 19L20 17L23 17L23 18L22 18L22 20L25 20L25 23L27 23L27 24L28 24L28 23L27 23L27 22L26 22L26 20L27 20L27 18L28 18L28 17L27 17L27 15L26 15L26 13L27 13L27 12L26 12L26 13L25 13L25 11L24 11L24 10L25 10L25 9ZM26 9L26 10L28 10L28 9ZM6 13L6 14L7 14L7 13ZM19 13L19 14L20 14L20 13ZM21 15L21 16L22 16L22 15ZM24 15L24 16L25 16L25 17L26 17L26 15ZM14 17L14 18L15 18L15 17ZM0 18L0 19L1 19L1 18ZM2 18L2 19L3 19L3 18ZM23 18L23 19L24 19L24 18ZM25 18L25 19L26 19L26 18ZM0 20L0 21L1 21L1 20ZM21 21L21 24L24 24L24 21ZM9 22L9 23L10 23L10 22ZM11 22L11 25L12 25L12 22ZM22 22L22 23L23 23L23 22ZM9 25L9 26L10 26L10 25ZM14 25L14 26L15 26L15 25ZM23 25L23 26L24 26L24 25ZM0 0L0 7L7 7L7 0ZM1 1L1 6L6 6L6 1ZM2 2L2 5L5 5L5 2ZM22 0L22 7L29 7L29 0ZM23 1L23 6L28 6L28 1ZM24 2L24 5L27 5L27 2ZM0 22L0 29L7 29L7 22ZM1 23L1 28L6 28L6 23ZM2 24L2 27L5 27L5 24Z" fill="#000000"/></g></g></svg>
