<?xml version="1.0" encoding="UTF-8"?>
<svg xmlns="http://www.w3.org/2000/svg" version="1.1" width="100" height="100" viewBox="0 0 100 100"><rect x="0" y="0" width="100" height="100" fill="#ffffff"/><g transform="scale(3.448)"><g transform="translate(0,0)"><path fill-rule="evenodd" d="M9 0L9 1L10 1L10 2L8 2L8 3L9 3L9 4L10 4L10 5L9 5L9 6L8 6L8 8L4 8L4 9L3 9L3 8L0 8L0 9L2 9L2 10L5 10L5 11L4 11L4 12L3 12L3 11L1 11L1 12L0 12L0 14L1 14L1 12L2 12L2 13L5 13L5 11L7 11L7 12L6 12L6 13L8 13L8 14L6 14L6 15L8 15L8 16L5 16L5 15L4 15L4 14L3 14L3 15L1 15L1 18L0 18L0 19L1 19L1 20L0 20L0 21L1 21L1 20L2 20L2 21L3 21L3 20L4 20L4 21L5 21L5 20L6 20L6 21L7 21L7 20L8 20L8 19L7 19L7 18L5 18L5 17L11 17L11 18L12 18L12 16L16 16L16 18L18 18L18 15L15 15L15 13L17 13L17 14L18 14L18 10L17 10L17 9L18 9L18 8L20 8L20 7L21 7L21 6L20 6L20 5L21 5L21 4L19 4L19 3L20 3L20 2L21 2L21 1L20 1L20 0L18 0L18 4L17 4L17 1L16 1L16 0L14 0L14 1L15 1L15 2L14 2L14 3L13 3L13 0L12 0L12 1L10 1L10 0ZM11 2L11 3L12 3L12 4L11 4L11 5L10 5L10 6L9 6L9 7L10 7L10 6L11 6L11 8L12 8L12 10L10 10L10 8L9 8L9 9L8 9L8 10L10 10L10 11L8 11L8 12L9 12L9 14L11 14L11 13L12 13L12 12L13 12L13 8L12 8L12 6L13 6L13 7L14 7L14 5L13 5L13 3L12 3L12 2ZM15 2L15 3L16 3L16 2ZM16 4L16 5L17 5L17 4ZM18 5L18 6L17 6L17 7L16 7L16 6L15 6L15 8L17 8L17 7L18 7L18 6L19 6L19 7L20 7L20 6L19 6L19 5ZM21 8L21 10L20 10L20 11L19 11L19 12L20 12L20 11L21 11L21 12L22 12L22 15L21 15L21 14L20 14L20 15L19 15L19 16L20 16L20 15L21 15L21 16L22 16L22 17L21 17L21 18L20 18L20 19L16 19L16 22L17 22L17 24L16 24L16 23L15 23L15 24L14 24L14 21L13 21L13 20L14 20L14 19L15 19L15 17L14 17L14 18L13 18L13 20L12 20L12 19L10 19L10 21L11 21L11 23L12 23L12 24L11 24L11 25L10 25L10 26L8 26L8 29L10 29L10 28L12 28L12 29L13 29L13 28L12 28L12 27L11 27L11 26L12 26L12 24L14 24L14 25L15 25L15 24L16 24L16 27L15 27L15 28L16 28L16 27L17 27L17 29L18 29L18 28L19 28L19 27L18 27L18 26L21 26L21 27L20 27L20 29L23 29L23 28L24 28L24 29L26 29L26 27L27 27L27 29L29 29L29 28L28 28L28 27L29 27L29 25L27 25L27 26L26 26L26 22L27 22L27 24L29 24L29 21L26 21L26 22L25 22L25 20L26 20L26 18L27 18L27 20L28 20L28 19L29 19L29 16L28 16L28 15L29 15L29 12L28 12L28 11L29 11L29 9L28 9L28 10L26 10L26 9L27 9L27 8L26 8L26 9L25 9L25 10L24 10L24 9L23 9L23 8ZM6 9L6 10L7 10L7 9ZM15 9L15 10L14 10L14 11L15 11L15 12L16 12L16 11L17 11L17 10L16 10L16 9ZM22 10L22 11L24 11L24 14L23 14L23 15L22 15L22 16L23 16L23 17L24 17L24 19L23 19L23 18L22 18L22 19L23 19L23 20L25 20L25 18L26 18L26 17L27 17L27 18L28 18L28 17L27 17L27 14L28 14L28 13L27 13L27 11L26 11L26 10L25 10L25 11L24 11L24 10ZM11 11L11 12L12 12L12 11ZM25 11L25 14L27 14L27 13L26 13L26 11ZM3 15L3 16L2 16L2 17L3 17L3 18L1 18L1 19L2 19L2 20L3 20L3 18L4 18L4 15ZM10 15L10 16L12 16L12 15ZM24 15L24 16L26 16L26 15ZM4 19L4 20L5 20L5 19ZM6 19L6 20L7 20L7 19ZM20 19L20 20L21 20L21 19ZM11 20L11 21L12 21L12 20ZM18 20L18 21L19 21L19 22L20 22L20 21L19 21L19 20ZM8 21L8 25L9 25L9 24L10 24L10 22L9 22L9 21ZM21 21L21 24L24 24L24 21ZM22 22L22 23L23 23L23 22ZM18 23L18 24L17 24L17 26L18 26L18 25L20 25L20 24L19 24L19 23ZM22 25L22 28L23 28L23 27L24 27L24 25ZM13 26L13 27L14 27L14 26ZM27 26L27 27L28 27L28 26ZM0 0L0 7L7 7L7 0ZM1 1L1 6L6 6L6 1ZM2 2L2 5L5 5L5 2ZM22 0L22 7L29 7L29 0ZM23 1L23 6L28 6L28 1ZM24 2L24 5L27 5L27 2ZM0 22L0 29L7 29L7 22ZM1 23L1 28L6 28L6 23ZM2 24L2 27L5 27L5 24Z" fill="#000000"/></g></g></svg>
