<?xml version="1.0" encoding="UTF-8"?>
<svg xmlns="http://www.w3.org/2000/svg" version="1.1" width="100" height="100" viewBox="0 0 100 100"><rect x="0" y="0" width="100" height="100" fill="#ffffff"/><g transform="scale(3.448)"><g transform="translate(0,0)"><path fill-rule="evenodd" d="M10 0L10 2L11 2L11 0ZM12 0L12 1L13 1L13 0ZM15 0L15 1L14 1L14 2L15 2L15 3L14 3L14 4L13 4L13 2L12 2L12 4L13 4L13 5L11 5L11 6L10 6L10 4L11 4L11 3L8 3L8 4L9 4L9 5L8 5L8 7L9 7L9 8L6 8L6 9L10 9L10 11L11 11L11 9L12 9L12 10L13 10L13 11L12 11L12 13L14 13L14 14L11 14L11 15L10 15L10 18L11 18L11 17L12 17L12 18L13 18L13 17L14 17L14 20L13 20L13 19L12 19L12 21L14 21L14 22L10 22L10 21L11 21L11 19L10 19L10 20L9 20L9 18L8 18L8 16L9 16L9 14L10 14L10 13L11 13L11 12L9 12L9 14L8 14L8 15L7 15L7 14L5 14L5 13L7 13L7 12L8 12L8 11L9 11L9 10L6 10L6 11L5 11L5 13L4 13L4 11L3 11L3 12L2 12L2 13L3 13L3 16L2 16L2 14L0 14L0 21L1 21L1 18L2 18L2 17L4 17L4 19L2 19L2 21L7 21L7 20L4 20L4 19L5 19L5 18L6 18L6 19L8 19L8 20L9 20L9 21L8 21L8 23L9 23L9 22L10 22L10 23L11 23L11 24L8 24L8 29L10 29L10 28L11 28L11 27L10 27L10 28L9 28L9 26L11 26L11 25L12 25L12 26L13 26L13 27L12 27L12 29L13 29L13 28L14 28L14 29L18 29L18 28L16 28L16 26L17 26L17 27L18 27L18 25L16 25L16 23L18 23L18 24L19 24L19 23L20 23L20 27L19 27L19 28L22 28L22 27L23 27L23 26L24 26L24 27L26 27L26 26L24 26L24 25L27 25L27 28L24 28L24 29L27 29L27 28L28 28L28 26L29 26L29 23L27 23L27 22L29 22L29 20L28 20L28 19L27 19L27 16L28 16L28 15L27 15L27 12L28 12L28 11L27 11L27 12L25 12L25 9L26 9L26 8L25 8L25 9L24 9L24 8L23 8L23 9L22 9L22 8L20 8L20 9L18 9L18 8L17 8L17 5L18 5L18 7L19 7L19 5L20 5L20 3L21 3L21 0L18 0L18 1L17 1L17 0ZM8 1L8 2L9 2L9 1ZM16 1L16 2L17 2L17 3L18 3L18 4L19 4L19 3L18 3L18 2L20 2L20 1L18 1L18 2L17 2L17 1ZM14 4L14 5L13 5L13 7L12 7L12 6L11 6L11 7L12 7L12 9L13 9L13 10L14 10L14 5L17 5L17 4ZM9 6L9 7L10 7L10 6ZM15 6L15 9L17 9L17 8L16 8L16 6ZM20 6L20 7L21 7L21 6ZM0 8L0 10L1 10L1 11L2 11L2 10L3 10L3 9L4 9L4 10L5 10L5 8ZM10 8L10 9L11 9L11 8ZM27 8L27 9L28 9L28 10L29 10L29 9L28 9L28 8ZM1 9L1 10L2 10L2 9ZM20 9L20 10L18 10L18 11L17 11L17 12L16 12L16 11L15 11L15 14L17 14L17 16L16 16L16 17L15 17L15 15L12 15L12 17L13 17L13 16L14 16L14 17L15 17L15 18L16 18L16 17L17 17L17 20L16 20L16 19L15 19L15 20L14 20L14 21L15 21L15 22L16 22L16 21L17 21L17 22L19 22L19 20L21 20L21 19L22 19L22 18L21 18L21 17L20 17L20 16L21 16L21 14L22 14L22 17L23 17L23 18L24 18L24 19L25 19L25 21L26 21L26 20L27 20L27 19L25 19L25 18L24 18L24 17L26 17L26 16L27 16L27 15L26 15L26 13L25 13L25 12L24 12L24 9L23 9L23 12L22 12L22 13L20 13L20 12L21 12L21 11L22 11L22 10L21 10L21 9ZM6 11L6 12L7 12L7 11ZM13 11L13 12L14 12L14 11ZM18 11L18 12L17 12L17 13L18 13L18 14L20 14L20 13L18 13L18 12L19 12L19 11ZM23 12L23 13L22 13L22 14L23 14L23 13L24 13L24 14L25 14L25 13L24 13L24 12ZM28 13L28 14L29 14L29 13ZM4 14L4 15L5 15L5 16L7 16L7 15L5 15L5 14ZM18 15L18 16L17 16L17 17L18 17L18 18L20 18L20 17L18 17L18 16L19 16L19 15ZM23 15L23 16L24 16L24 15ZM1 16L1 17L2 17L2 16ZM6 17L6 18L7 18L7 17ZM28 17L28 18L29 18L29 17ZM15 20L15 21L16 21L16 20ZM17 20L17 21L18 21L18 20ZM21 21L21 24L24 24L24 21ZM22 22L22 23L23 23L23 22ZM12 23L12 25L14 25L14 26L16 26L16 25L15 25L15 23ZM25 23L25 24L27 24L27 23ZM22 25L22 26L21 26L21 27L22 27L22 26L23 26L23 25ZM14 27L14 28L15 28L15 27ZM0 0L0 7L7 7L7 0ZM1 1L1 6L6 6L6 1ZM2 2L2 5L5 5L5 2ZM22 0L22 7L29 7L29 0ZM23 1L23 6L28 6L28 1ZM24 2L24 5L27 5L27 2ZM0 22L0 29L7 29L7 22ZM1 23L1 28L6 28L6 23ZM2 24L2 27L5 27L5 24Z" fill="#000000"/></g></g></svg>
